<svg xmlns="http://www.w3.org/2000/svg" width="24" height="11" viewBox="0 0 24 11" fill="none">
  <path d="M19.0385 0H7.77535L7.35326 0.562787H13.9364L13.5365 1.09595H6.95338L6.53129 1.65874H13.1144L12.7145 2.19191H6.13142L5.70933 2.7547H12.2925L11.8926 3.28786H5.32426L4.90217 3.85065H11.4853L11.0854 4.38382H4.5023L4.08021 4.9466H10.6633L10.2635 5.47977H3.68774L3.26565 6.04256H9.84877L9.4489 6.57572H2.86577L2.44368 7.13851H9.02681L8.62693 7.67168H2.05121L1.62912 8.23446H8.21225L7.81237 8.76763H1.22925L0.807155 9.33042H7.39028L6.99041 9.86359H0.40728L0 10.4116H11.2631L12.8182 8.33073H19.7716L19.0237 9.33042V10.4116H23.7037V0H19.0459H19.0385ZM19.0237 7.21997H13.655L19.0237 0.0222153V7.21997Z" fill="#F47A46"/>
</svg>
