<?xml version="1.0" encoding="UTF-8"?>
<svg id="Layer_1" data-name="Layer 1" xmlns="http://www.w3.org/2000/svg" viewBox="0 0 24 24">
  <defs>
    <style>
      .cls-1 {
        fill: #fff;
      }
    </style>
  </defs>
  <path class="cls-1" d="M20.73,8l-1.89,4.96-1.9-4.96h-3.27v.45c.36.18.7.4,1,.66l-1.28,1.74c-.76-.63-1.75-.94-2.65-.94-.68,0-.98.23-.98.62,0,1.1,5.13.27,5.13,3.61,0,1.01-.42,1.83-1.22,2.36v.51h2.35v-5.96l2.3,5.96h1.03l2.29-5.96v5.96h2.35v-9h-3.27Z"/>
  <path class="cls-1" d="M7.08,15.71l1.24-1.8c.65.65,1.66,1.19,2.91,1.19.79,0,1.28-.27,1.28-.71,0-1.19-5.13-.2-5.13-3.66,0-.8.36-1.56,1.06-2.1v-.62h-2.35v3.37h-3.79v-3.37H0v8.94h2.29v-3.56h3.79v3.56h2.35v-.32c-.53-.24-.97-.55-1.36-.9Z"/>
</svg>
