<?xml version="1.0" encoding="UTF-8"?>
<svg id="Layer_1" data-name="Layer 1" xmlns="http://www.w3.org/2000/svg" viewBox="0 0 20 20">
  <defs>
    <style>
      .cls-1 {
        fill: #333333;
      }
    </style>
  </defs>
  <path class="cls-1" d="M3.33329 17.5C2.87496 17.5 2.4826 17.3368 2.15621 17.0104C1.82982 16.684 1.66663 16.2916 1.66663 15.8333V6.66663C1.66663 6.20829 1.82982 5.81593 2.15621 5.48954C2.4826 5.16315 2.87496 4.99996 3.33329 4.99996H6.66663V3.33329C6.66663 2.87496 6.82982 2.4826 7.15621 2.15621C7.4826 1.82982 7.87496 1.66663 8.33329 1.66663H11.6666C12.125 1.66663 12.5173 1.82982 12.8437 2.15621C13.1701 2.4826 13.3333 2.87496 13.3333 3.33329V4.99996H16.6666C17.125 4.99996 17.5173 5.16315 17.8437 5.48954C18.1701 5.81593 18.3333 6.20829 18.3333 6.66663V15.8333C18.3333 16.2916 18.1701 16.684 17.8437 17.0104C17.5173 17.3368 17.125 17.5 16.6666 17.5H3.33329ZM3.33329 15.8333H16.6666V6.66663H3.33329V15.8333ZM8.33329 4.99996H11.6666V3.33329H8.33329V4.99996Z"/>
</svg>
